<svg t="1647829316593" class="icon" viewBox="0 0 1024 1024" version="1.1" xmlns="http://www.w3.org/2000/svg" p-id="2602" width="200" height="200"><path d="M774.0416 892.0576H253.0816c-66.816 0-120.9856-54.1696-120.9856-120.9856V297.6256c0-66.816 54.1696-120.9856 120.9856-120.9856h520.9088c66.816 0 120.9856 54.1696 120.9856 120.9856v473.4464c0.0512 66.816-54.1184 120.9856-120.9344 120.9856z" fill="#FFE8B2" p-id="2603"></path><path d="M249.5488 361.3696v410.112c0 36.1984 13.568 99.5328 97.9968 116.0704-75.3664 0-211.8144 33.9456-211.8144-140.9536V353.0752l113.8176 8.2944z" fill="#F7DDA9" p-id="2604"></path><path d="M780.9024 361.3696v410.112c0 36.1984-12.8 99.5328-92.416 116.0704 71.1168 0 199.7824 33.9456 199.7824-140.9536V353.0752l-107.3664 8.2944z" fill="#E8BC70" p-id="2605"></path><path d="M237.6192 376.5248v398.9504c0 45.7216 22.0672 107.7248 104.3968 107.7248 22.784 0.5632 26.7776-11.8784 26.7776-11.8784s-64.1024 20.9408-64.1024-97.0752V372.224l-67.072 4.3008z" fill="#FFEECC" p-id="2606"></path><path d="M774.0416 174.3872H253.0816c-66.816 0-120.9856 54.1696-120.9856 120.9856v59.1872h762.9312V295.3728c0-66.816-54.1696-120.9856-120.9856-120.9856z" fill="#FF8383" p-id="2607"></path><path d="M248.9344 356.096s-1.1264-53.9136-1.1264-77.2608c0-40.704 32.768-90.112 93.0816-96.512H264.7552c-31.2832 0-129.6896 5.632-129.6896 173.7728h113.8688z" fill="#FFB8B8" p-id="2608"></path><path d="M780.4416 356.096s1.0752-53.9136 1.0752-77.2608c0-40.704-30.9248-90.112-87.808-96.512h71.7824c29.4912 0 122.2656 5.632 122.2656 173.7728h-107.3152z" fill="#FC6565" p-id="2609"></path><path d="M292.1472 194.048s-54.4768 8.2944-54.4768 64.256v111.9232h61.0816V258.8672c0-23.2448-2.8672-49.8176 51.8144-58.0096-31.744-11.1104-58.4192-6.8096-58.4192-6.8096z" fill="#FFD9D9" p-id="2610"></path><path d="M774.0416 148.7872h-61.2864v-21.3504c0-14.1312-11.4688-25.6-25.6-25.6s-25.6 11.4688-25.6 25.6v21.3504H365.568v-21.3504c0-14.1312-11.4688-25.6-25.6-25.6s-25.6 11.4688-25.6 25.6v21.3504H253.0816c-2.5088 0-5.0176 0.0512-7.5264 0.2048-77.3632 3.9424-139.0592 68.096-139.0592 146.3808V768.768c0 80.8448 65.7408 146.5856 146.5856 146.5856h520.9088c80.8448 0 146.5856-65.7408 146.5856-146.5856V295.3728c0.0512-80.7936-65.7408-146.5856-146.5344-146.5856z m-459.6736 51.2v42.24c0 14.1312 11.4688 25.6 25.6 25.6s25.6-11.4688 25.6-25.6v-42.24h295.936v42.24c0 14.1312 11.4688 25.6 25.6 25.6s25.6-11.4688 25.6-25.6v-42.24h61.2864c52.5824 0 95.3856 42.8032 95.3856 95.3856v33.5872h-711.68v-33.5872c0-52.5824 42.8032-95.3856 95.3856-95.3856H314.368z m459.6736 664.2176H253.0816c-52.5824 0-95.3856-42.8032-95.3856-95.3856V380.16h711.7312v388.6592c0 52.5824-42.8032 95.3856-95.3856 95.3856z" fill="#434A54" p-id="2611"></path><path d="M641.0752 492.5952L486.4 662.272l-83.4048-87.8592c-9.728-10.24-25.9584-10.7008-36.1984-0.9216-10.24 9.728-10.6496 25.9584-0.9216 36.1984l90.3168 95.1296a42.07616 42.07616 0 0 0 30.3616 13.056h0.4096c11.5712-0.1024 22.6816-5.12 30.5152-13.6704l161.4336-177.0496c9.5232-10.4448 8.7552-26.624-1.6896-36.1472s-26.624-8.8576-36.1472 1.5872z" fill="#434A54" p-id="2612"></path></svg>